<?xml version="1.0" standalone="no"?>
<!DOCTYPE svg PUBLIC "-//W3C//DTD SVG 20010904//EN"
 "http://www.w3.org/TR/2001/REC-SVG-20010904/DTD/svg10.dtd">
<svg version="1.0" xmlns="http://www.w3.org/2000/svg"
 width="454.000000pt" height="454.000000pt" viewBox="0 0 454.000000 454.000000"
 preserveAspectRatio="xMidYMid meet">
<metadata>
Created by potrace 1.14, written by Peter Selinger 2001-2017
</metadata>
<g transform="translate(0.000000,454.000000) scale(0.100000,-0.100000)"
fill="#000000" stroke="none">
<path d="M2262 4433 c-7 -10 -10 -12 -6 -4 5 9 3 12 -4 7 -7 -4 -12 -13 -12
-21 0 -8 -5 -17 -12 -21 -7 -5 -8 -3 -3 7 8 12 6 12 -8 0 -9 -7 -17 -10 -17
-6 0 5 -9 0 -20 -10 -11 -10 -20 -14 -20 -10 0 4 -9 0 -20 -10 -11 -10 -17
-23 -13 -29 3 -6 2 -8 -2 -3 -5 4 -18 -1 -29 -10 -20 -18 -20 -17 -6 2 15 20
14 20 -8 1 -12 -11 -22 -15 -22 -11 0 4 -9 0 -20 -10 -11 -10 -17 -21 -15 -25
3 -4 -5 -7 -18 -6 -13 1 -21 -4 -20 -11 2 -7 -3 -12 -10 -10 -6 1 -11 -5 -9
-13 2 -8 0 -12 -4 -8 -4 4 -14 2 -22 -5 -8 -6 -25 -12 -36 -12 -12 -1 -20 -6
-18 -13 1 -7 -4 -11 -10 -10 -7 2 -12 -2 -11 -8 1 -6 -8 -11 -20 -10 -13 1
-21 -4 -19 -12 1 -6 -4 -11 -10 -10 -7 2 -11 -4 -10 -12 2 -8 0 -12 -4 -8 -4
4 -14 2 -22 -5 -13 -10 -14 -9 -7 3 5 9 0 8 -13 -4 -12 -11 -22 -15 -22 -11 0
4 -9 0 -20 -10 -11 -10 -17 -23 -13 -29 3 -6 2 -8 -2 -3 -5 4 -18 -1 -29 -10
-20 -18 -20 -17 -6 2 15 20 14 20 -8 1 -12 -11 -22 -15 -22 -11 0 4 -9 0 -20
-10 -11 -10 -17 -21 -15 -26 3 -4 1 -10 -4 -13 -5 -4 -13 -1 -16 5 -5 7 -22
-3 -48 -28 -23 -21 -35 -29 -27 -18 15 20 14 20 -8 1 -12 -11 -22 -15 -22 -11
0 4 -9 0 -20 -10 -11 -10 -17 -23 -13 -29 3 -6 2 -8 -2 -3 -5 4 -18 -1 -29
-10 -20 -17 -20 -17 -6 2 8 11 -7 0 -32 -23 -31 -30 -48 -40 -53 -32 -5 8 -18
1 -43 -22 -19 -18 -32 -27 -28 -21 5 9 2 11 -8 7 -9 -3 -16 -10 -16 -16 0 -5
-5 -6 -10 -3 -6 3 -14 -5 -20 -19 -5 -14 -12 -26 -15 -26 -4 0 -3 6 1 13 4 6
-3 3 -16 -8 -14 -12 -20 -14 -15 -5 5 10 1 8 -13 -4 -12 -10 -19 -22 -16 -27
2 -4 -4 -6 -15 -4 -11 2 -26 -4 -33 -13 -12 -16 -11 -16 7 -2 19 14 19 14 6
-3 -10 -12 -17 -14 -26 -7 -8 7 -17 4 -29 -8 -9 -10 -14 -22 -11 -25 3 -4 2
-5 -2 -2 -3 3 -13 -1 -21 -8 -8 -6 -25 -12 -36 -12 -12 -1 -20 -6 -19 -13 2
-7 -3 -11 -10 -9 -6 1 -11 -5 -9 -13 2 -8 0 -12 -4 -7 -4 4 -17 -1 -28 -10
-20 -17 -20 -17 -6 2 8 11 -3 4 -24 -15 -22 -19 -35 -28 -31 -20 4 8 -6 2 -23
-14 -18 -17 -32 -26 -32 -22 0 5 -8 2 -17 -5 -15 -12 -16 -12 -8 1 4 8 -6 2
-23 -13 -16 -16 -34 -28 -38 -27 -5 1 -11 -7 -15 -17 -4 -10 -8 -14 -8 -9 -1
5 -11 1 -23 -10 -13 -12 -18 -13 -13 -4 5 10 1 8 -13 -4 -12 -10 -19 -24 -15
-30 3 -6 2 -8 -2 -3 -5 4 -18 -1 -29 -10 -20 -17 -20 -17 -6 2 8 11 -2 5 -23
-14 -20 -19 -35 -37 -32 -39 2 -2 -2 -11 -10 -18 -8 -8 -12 -21 -9 -29 4 -8 1
-15 -6 -15 -10 0 -10 -3 -1 -14 7 -9 11 -52 10 -117 0 -57 -1 -171 -1 -254 1
-82 1 -477 0 -877 0 -400 3 -731 6 -737 4 -5 2 -12 -3 -15 -11 -7 -9 -25 3
-45 7 -10 5 -12 -5 -6 -8 4 1 -8 19 -27 25 -26 39 -34 55 -30 12 3 19 1 15 -3
-12 -13 12 -35 38 -35 14 0 23 -5 21 -12 -1 -8 7 -13 20 -12 13 1 20 -3 17 -7
-3 -5 2 -9 10 -9 9 0 15 -5 13 -12 -1 -7 3 -13 8 -14 32 -6 55 -18 55 -29 0
-8 8 -11 20 -8 14 4 20 1 18 -8 -2 -10 5 -13 21 -11 15 2 21 0 17 -7 -4 -6 0
-11 8 -11 9 0 15 -6 13 -12 -1 -8 7 -12 22 -10 15 2 21 0 17 -7 -4 -6 0 -11 8
-11 9 0 15 -6 13 -13 -1 -7 7 -11 21 -9 14 2 21 -1 20 -9 -2 -7 2 -13 7 -14 6
0 17 -5 25 -10 8 -5 23 -8 34 -6 11 1 16 -2 12 -8 -4 -6 0 -11 8 -11 9 0 15
-6 13 -12 -1 -8 7 -12 21 -10 14 2 21 -1 20 -10 -2 -8 5 -12 21 -10 15 2 21 0
17 -7 -4 -6 0 -11 8 -11 9 0 16 -6 16 -14 0 -9 7 -12 20 -9 14 4 20 1 18 -8
-2 -9 5 -13 20 -11 14 2 21 -1 20 -10 -2 -8 5 -12 20 -10 14 2 21 -1 20 -10
-2 -7 3 -12 9 -11 7 2 12 0 10 -5 -1 -4 3 -9 8 -10 6 -2 16 -9 24 -15 8 -7 22
-11 31 -9 11 2 20 -5 23 -18 3 -14 13 -20 31 -20 15 0 25 -5 23 -12 -1 -7 4
-12 11 -11 6 2 12 -2 12 -7 0 -6 9 -10 20 -10 11 0 19 -5 17 -12 -1 -7 3 -13
8 -13 27 -3 54 -17 52 -28 -1 -7 7 -11 21 -9 14 2 21 -1 20 -10 -2 -9 5 -12
22 -10 14 2 22 1 18 -4 -13 -12 13 -34 39 -34 14 0 21 -4 18 -10 -3 -5 1 -10
9 -10 9 0 15 -6 13 -13 -1 -7 7 -11 21 -9 14 2 21 -1 20 -10 -2 -8 6 -13 19
-12 12 1 21 -4 20 -10 -1 -6 8 -10 21 -8 14 2 21 -1 20 -9 -2 -7 7 -18 19 -24
13 -7 32 -20 44 -31 12 -10 30 -18 40 -16 12 2 18 -2 17 -10 -2 -8 6 -13 19
-12 12 1 21 -1 20 -5 -1 -3 2 -7 7 -8 5 -1 12 -6 15 -11 10 -16 80 -52 102
-52 11 0 17 -4 14 -10 -3 -5 1 -10 9 -10 9 0 15 -6 13 -12 -1 -8 7 -13 20 -12
13 1 20 -3 17 -7 -3 -5 7 -9 22 -9 15 0 25 -3 21 -6 -10 -10 20 -34 42 -34 12
0 21 -4 21 -10 0 -18 35 -11 47 9 7 11 20 18 30 16 10 -1 33 11 51 29 18 17
43 31 55 31 12 1 21 6 20 13 -2 7 3 11 10 9 6 -1 11 3 10 9 -1 6 8 11 20 10
15 -1 21 4 19 14 -2 8 0 12 4 7 4 -4 19 3 32 15 14 13 21 16 17 8 -5 -10 -1
-8 13 4 24 21 29 32 10 20 -6 -4 -8 -3 -4 4 3 6 15 9 26 7 10 -2 25 4 32 13
12 16 11 16 -7 2 -19 -14 -19 -14 -6 3 10 13 17 15 27 6 13 -11 18 -6 15 13 0
5 5 7 12 5 6 -1 11 5 9 13 -2 8 0 12 4 7 4 -4 17 1 28 10 20 18 20 17 6 -2
-15 -20 -14 -20 8 -1 12 11 22 15 22 11 0 -4 9 0 20 10 11 10 17 21 15 25 -3
4 5 7 18 6 12 0 21 4 20 11 -2 7 6 10 17 8 10 -2 25 4 32 13 12 16 11 16 -7 2
-19 -14 -19 -14 -6 3 10 12 17 14 26 7 8 -7 17 -4 29 8 9 10 13 21 10 25 -3 3
2 4 13 2 22 -3 55 24 46 39 -3 6 -3 8 2 4 4 -4 15 -2 23 5 13 10 14 9 7 -3 -9
-16 29 13 53 40 10 11 12 11 6 1 -5 -9 -3 -12 4 -7 7 4 12 13 12 21 0 8 5 17
12 21 7 5 8 3 3 -7 -7 -11 -6 -12 7 -2 8 7 17 11 20 8 3 -3 13 5 24 17 19 22
19 23 -1 8 -18 -14 -19 -14 -7 2 7 9 21 15 30 13 9 -1 25 4 35 13 9 8 17 11
17 7 0 -4 9 0 20 10 11 10 17 21 14 26 -2 4 4 6 15 4 11 -2 26 4 33 13 12 16
11 16 -7 2 -19 -14 -19 -14 -6 3 10 12 17 14 26 7 9 -7 16 -5 26 7 12 14 12
16 0 8 -10 -6 -12 -4 -7 4 5 7 11 10 14 7 3 -4 17 4 31 16 21 19 23 20 11 3
-15 -20 -14 -20 8 -1 12 11 22 15 22 11 0 -5 11 2 25 15 13 12 22 28 18 34 -3
6 0 5 7 -1 11 -10 19 -8 39 10 13 12 21 16 16 8 -5 -9 -4 -12 3 -7 7 4 12 14
12 21 0 9 6 12 15 9 8 -4 15 -1 15 6 0 6 5 8 10 5 6 -3 14 5 20 19 5 14 12 26
15 26 4 0 3 -5 -1 -12 -5 -7 -3 -8 7 -2 8 5 19 9 24 9 6 1 9 7 7 15 -2 8 0 12
4 7 4 -4 17 1 28 10 20 18 20 17 6 -2 -15 -20 -14 -20 8 -1 12 11 22 15 22 11
0 -4 9 0 20 10 11 10 17 21 15 25 -3 5 3 7 12 5 20 -3 55 23 47 36 -2 4 4 6
15 4 11 -2 26 4 33 13 12 16 11 16 -7 2 -19 -14 -19 -14 -6 3 10 12 17 14 26
7 9 -7 16 -6 25 5 7 8 16 13 20 10 4 -3 14 3 21 13 13 16 13 16 -6 2 -19 -14
-19 -14 -6 3 8 9 16 15 19 12 3 -3 11 0 19 6 7 6 13 8 13 4 0 -4 7 -2 15 5 8
7 12 16 9 21 -3 5 0 8 7 7 9 -2 12 57 12 242 0 168 3 247 11 252 7 5 8 8 0 8
-16 0 -17 602 -1 612 9 6 9 8 0 8 -16 0 -15 280 1 280 6 0 6 4 -2 9 -14 9 -13
32 3 43 6 5 6 8 -1 8 -9 0 -12 98 -11 371 l0 371 -29 27 c-16 15 -37 25 -48
23 -12 -3 -16 0 -11 8 5 8 0 11 -16 8 -17 -2 -25 3 -30 22 -4 14 -7 20 -8 14
-1 -6 -8 -11 -15 -11 -8 0 -14 5 -13 11 1 6 -8 10 -20 10 -13 -1 -20 3 -17 7
3 5 -2 9 -10 9 -9 0 -15 6 -14 13 2 7 -6 12 -19 11 -12 -1 -21 4 -20 10 1 6
-8 10 -20 10 -13 -1 -20 3 -17 7 3 5 -2 9 -10 9 -9 0 -15 6 -13 13 1 7 -7 11
-21 9 -14 -2 -21 1 -20 10 2 8 -4 12 -14 10 -10 -2 -18 2 -18 8 0 5 -7 10 -15
10 -8 0 -14 6 -12 13 1 7 -7 11 -21 9 -14 -2 -21 1 -20 9 2 7 -1 14 -7 14 -23
3 -56 22 -56 30 1 6 -2 10 -6 11 -23 2 -93 40 -93 51 0 6 -9 10 -20 8 -15 -3
-20 2 -20 18 0 12 -4 18 -8 12 -9 -13 -35 -18 -27 -5 3 5 -1 10 -9 10 -9 0
-15 6 -13 13 1 7 -7 11 -21 9 -14 -2 -21 1 -20 10 2 8 -5 12 -21 10 -15 -2
-21 0 -17 7 4 6 0 11 -8 11 -9 0 -15 6 -13 13 1 7 -7 11 -20 9 -16 -2 -23 2
-23 12 0 9 -3 15 -7 14 -14 -2 -52 17 -53 27 0 6 -10 9 -21 7 -12 -2 -18 2
-17 10 2 8 -6 13 -19 12 -13 -1 -20 3 -17 7 3 5 -2 9 -10 9 -9 0 -16 7 -16 15
0 8 -3 14 -7 13 -13 -3 -98 40 -95 49 1 4 -1 8 -5 9 -19 2 -52 20 -55 29 -2 5
-11 8 -21 7 -10 -2 -16 2 -15 10 2 8 -5 12 -20 10 -14 -2 -21 1 -20 9 2 7 -1
14 -7 14 -21 3 -54 20 -57 30 -2 6 -11 9 -20 9 -10 -1 -15 3 -12 7 3 5 -2 9
-10 9 -9 0 -15 5 -14 12 2 7 -2 12 -9 13 -6 0 -15 3 -19 8 -4 4 -18 7 -31 7
-14 0 -21 4 -18 10 3 6 -1 10 -9 10 -9 0 -15 6 -13 13 1 7 -7 11 -21 9 -14 -2
-21 1 -20 10 2 7 -3 12 -9 11 -7 -2 -12 3 -10 10 1 7 -7 11 -21 11 -12 -1 -20
1 -17 4 3 3 -12 14 -32 23 -21 10 -38 21 -37 26 0 4 -7 7 -18 5 -11 -2 -18 3
-18 11 0 11 -7 13 -22 9 -14 -3 -19 -2 -14 6 4 7 1 12 -8 12 -8 0 -17 6 -19
13 -4 10 -6 10 -6 0 -1 -16 -31 -17 -31 -2 0 8 -4 8 -14 0 -9 -8 -15 -8 -18
-1 -1 5 -9 2 -16 -7z m-682 -427 c0 -2 -8 -10 -17 -17 -16 -13 -17 -12 -4 4
13 16 21 21 21 13z m850 -3850 c0 -2 -8 -10 -17 -17 -16 -13 -17 -12 -4 4 13
16 21 21 21 13z"/>
<path d="M1339 3863 c-13 -16 -12 -17 4 -4 9 7 17 15 17 17 0 8 -8 3 -21 -13z"/>
<path d="M2430 20 c0 -5 5 -10 11 -10 5 0 7 5 4 10 -3 6 -8 10 -11 10 -2 0 -4
-4 -4 -10z"/>
<path d="M2800 20 c0 -5 5 -10 11 -10 5 0 7 5 4 10 -3 6 -8 10 -11 10 -2 0 -4
-4 -4 -10z"/>
</g>
</svg>
