<?xml version="1.0" standalone="no"?>
<!DOCTYPE svg PUBLIC "-//W3C//DTD SVG 20010904//EN"
 "http://www.w3.org/TR/2001/REC-SVG-20010904/DTD/svg10.dtd">
<svg version="1.0" xmlns="http://www.w3.org/2000/svg"
 width="343.000000pt" height="343.000000pt" viewBox="0 0 343.000000 343.000000"
 preserveAspectRatio="xMidYMid meet">
<metadata>
Created by potrace 1.14, written by Peter Selinger 2001-2017
</metadata>
<g transform="translate(0.000000,343.000000) scale(0.100000,-0.100000)"
fill="#000000" stroke="none">
<path d="M1640 3373 c-8 -3 -134 -65 -280 -136 -667 -326 -765 -373 -920 -444
-219 -99 -257 -121 -280 -158 -20 -32 -20 -54 -20 -908 0 -521 4 -886 9 -900
22 -57 61 -78 611 -342 146 -70 408 -197 582 -282 293 -144 320 -155 360 -151
28 3 106 37 216 92 94 47 178 86 186 86 8 0 16 3 18 8 4 9 124 66 134 63 4 -2
10 1 13 7 9 14 109 61 115 55 3 -4 6 -1 6 5 0 7 4 12 8 12 8 0 598 284 751
362 117 59 106 -41 109 956 3 1009 11 928 -96 992 -37 21 -125 66 -197 99 -71
32 -204 96 -295 141 -91 46 -280 138 -420 205 -140 67 -309 149 -375 181 -118
57 -193 75 -235 57z"/>
</g>
</svg>
